<svg width="24" height="24" viewBox="0 0 24 24" fill="none" xmlns="http://www.w3.org/2000/svg">
<path fill-rule="evenodd" clip-rule="evenodd" d="M7.26801 4.658C10.4171 4.38426 13.5839 4.38426 16.733 4.658L18.243 4.79C18.945 4.85112 19.606 5.14676 20.1196 5.62928C20.6331 6.11181 20.9693 6.75315 21.074 7.45C21.5275 10.4664 21.5275 13.5336 21.074 16.55C21.034 16.814 20.962 17.067 20.862 17.304C20.796 17.461 20.592 17.485 20.476 17.359L16.055 12.495C15.9572 12.3875 15.8303 12.3107 15.6897 12.2739C15.5491 12.2372 15.4009 12.2421 15.263 12.288L12.732 13.132L9.06101 9.002C8.99311 8.9256 8.91031 8.86389 8.81769 8.82065C8.72507 8.77742 8.62459 8.75357 8.52242 8.75057C8.42025 8.74757 8.31854 8.76549 8.22355 8.80323C8.12855 8.84096 8.04228 8.89772 7.97001 8.97L3.05601 13.884C3.02263 13.9183 2.97996 13.9421 2.93323 13.9526C2.88651 13.963 2.83776 13.9595 2.79296 13.9427C2.74816 13.9258 2.70926 13.8962 2.68102 13.8575C2.65279 13.8189 2.63645 13.7728 2.63401 13.725C2.51576 11.6285 2.61361 9.52544 2.92601 7.449C3.0307 6.75215 3.36689 6.11081 3.88043 5.62828C4.39398 5.14576 5.05499 4.85012 5.75701 4.789L7.26801 4.658ZM14 9C14 8.60218 14.158 8.22065 14.4394 7.93934C14.7207 7.65804 15.1022 7.5 15.5 7.5C15.8978 7.5 16.2794 7.65804 16.5607 7.93934C16.842 8.22065 17 8.60218 17 9C17 9.39783 16.842 9.77936 16.5607 10.0607C16.2794 10.342 15.8978 10.5 15.5 10.5C15.1022 10.5 14.7207 10.342 14.4394 10.0607C14.158 9.77936 14 9.39783 14 9Z" fill="#00C16A"/>
<path d="M2.96101 16.1C2.93394 16.1272 2.91353 16.1604 2.90139 16.1968C2.88925 16.2332 2.88569 16.272 2.89101 16.31L2.92601 16.55C3.03069 17.2469 3.36688 17.8882 3.88043 18.3707C4.39398 18.8533 5.05499 19.1489 5.75701 19.21L7.26701 19.341C10.417 19.615 13.583 19.615 16.733 19.341L18.243 19.21C18.6571 19.1742 19.06 19.0562 19.428 18.863C19.565 18.792 19.588 18.611 19.484 18.497L15.384 13.987C15.3515 13.9508 15.309 13.9249 15.262 13.9125C15.2149 13.9 15.1652 13.9016 15.119 13.917L12.737 14.711C12.5977 14.7575 12.4479 14.7621 12.306 14.7242C12.1642 14.6864 12.0366 14.6077 11.939 14.498L8.64401 10.791C8.62132 10.7655 8.59367 10.745 8.56274 10.7306C8.53181 10.7162 8.49827 10.7083 8.46417 10.7074C8.43007 10.7064 8.39614 10.7125 8.36447 10.7251C8.3328 10.7378 8.30406 10.7568 8.28001 10.781L2.96101 16.1Z" fill="#00C16A"/>
</svg>
