<svg width="20" height="21" viewBox="0 0 20 21" fill="none" xmlns="http://www.w3.org/2000/svg">
<g clip-path="url(#clip0_1_861)">
<path d="M10 0.328125C4.47581 0.328125 0 4.88086 0 10.5C0 16.1191 4.47581 20.6719 10 20.6719C15.5242 20.6719 20 16.1191 20 10.5C20 4.88086 15.5242 0.328125 10 0.328125ZM13.2258 7.21875C13.9395 7.21875 14.5161 7.80527 14.5161 8.53125C14.5161 9.25723 13.9395 9.84375 13.2258 9.84375C12.5121 9.84375 11.9355 9.25723 11.9355 8.53125C11.9355 7.80527 12.5121 7.21875 13.2258 7.21875ZM6.77419 7.21875C7.4879 7.21875 8.06452 7.80527 8.06452 8.53125C8.06452 9.25723 7.4879 9.84375 6.77419 9.84375C6.06048 9.84375 5.48387 9.25723 5.48387 8.53125C5.48387 7.80527 6.06048 7.21875 6.77419 7.21875ZM14.629 14.1996C13.4798 15.6023 11.7944 16.4062 10 16.4062C8.20564 16.4062 6.52016 15.6023 5.37097 14.1996C4.82258 13.5311 5.81452 12.6943 6.3629 13.3588C7.26613 14.4621 8.58871 15.0896 10 15.0896C11.4113 15.0896 12.7339 14.458 13.6371 13.3588C14.1774 12.6943 15.1734 13.5311 14.629 14.1996Z" fill="#EAB308"/>
</g>
<defs>
<clipPath id="clip0_1_861">
<rect width="20" height="21" fill="white"/>
</clipPath>
</defs>
</svg>
