<svg width="24" height="24" viewBox="0 0 24 24" fill="none" xmlns="http://www.w3.org/2000/svg">
<path fill-rule="evenodd" clip-rule="evenodd" d="M18.8512 6.45119C18.9367 6.36578 19.0045 6.26436 19.0509 6.15273C19.0972 6.04109 19.1211 5.92143 19.1211 5.80056C19.1212 5.6797 19.0975 5.56 19.0513 5.44831C19.0051 5.33661 18.9374 5.23511 18.852 5.14959C18.7666 5.06408 18.6651 4.99622 18.5535 4.9499C18.4419 4.90358 18.3222 4.8797 18.2013 4.87962C18.0805 4.87955 17.9608 4.90328 17.8491 4.94947C17.7374 4.99565 17.6359 5.06338 17.5504 5.14879L12 10.6992L6.45116 5.14879C6.27846 4.97609 6.04421 4.87906 5.79996 4.87906C5.55572 4.87906 5.32147 4.97609 5.14876 5.14879C4.97606 5.3215 4.87903 5.55575 4.87903 5.79999C4.87903 6.04424 4.97606 6.27849 5.14876 6.45119L10.6992 12L5.14876 17.5488C5.06325 17.6343 4.99541 17.7358 4.94913 17.8476C4.90285 17.9593 4.87903 18.0791 4.87903 18.2C4.87903 18.3209 4.90285 18.4407 4.94913 18.5524C4.99541 18.6642 5.06325 18.7657 5.14876 18.8512C5.32147 19.0239 5.55572 19.1209 5.79996 19.1209C5.9209 19.1209 6.04066 19.0971 6.15239 19.0508C6.26412 19.0045 6.36565 18.9367 6.45116 18.8512L12 13.3008L17.5504 18.8512C17.7231 19.0237 17.9572 19.1205 18.2013 19.1204C18.4454 19.1202 18.6795 19.0231 18.852 18.8504C19.0245 18.6777 19.1213 18.4435 19.1211 18.1994C19.121 17.9553 19.0239 17.7213 18.8512 17.5488L13.3008 12L18.8512 6.45119Z" fill="#475569"/>
</svg>
